<svg height="512" viewBox="0 0 512 512" width="512" xmlns="http://www.w3.org/2000/svg"><g id="filled_outline" data-name="filled outline"><path d="m344 184a144 144 0 1 0 144 144 144 144 0 0 0 -144-144zm0 256a112 112 0 1 1 112-112 112 112 0 0 1 -112 112z" fill="#ea9d2d"/><path d="m168 112a144 144 0 1 0 144 144 144 144 0 0 0 -144-144zm0 256a112 112 0 1 1 112-112 112 112 0 0 1 -112 112z" fill="#fbb540"/><path d="m376 409.345a8 8 0 0 1 -3.206-15.333 72.235 72.235 0 0 0 7.2-3.64 8 8 0 1 1 8.009 13.851 88 88 0 0 1 -8.8 4.451 7.96 7.96 0 0 1 -3.203.671z" fill="#ffd6db"/><path d="m408 384a8 8 0 0 1 -6.391-12.805 71.369 71.369 0 0 0 14.391-43.195 8 8 0 0 1 16 0 87.255 87.255 0 0 1 -17.6 52.805 7.987 7.987 0 0 1 -6.4 3.195z" fill="#ffd6db"/><path d="m224 72-56 72-56-72 24-32h64z" fill="#0a9acd"/><path d="m112 72h112l-24-32h-64z" fill="#0bafea"/><path d="m192 72-24-32-24 32z" fill="#8feaff"/><path d="m168 144 24-72h-48z" fill="#0bafea"/><path d="m329.586 136a21.146 21.146 0 0 1 14.952 6.193l9.807 9.807 9.806-9.807a21.151 21.151 0 0 1 14.949-6.193 21.144 21.144 0 0 1 20.06 14.459 16.269 16.269 0 0 1 -3.931 16.652l-40.884 40.889-40.889-40.889a16.273 16.273 0 0 1 -3.931-16.652 21.146 21.146 0 0 1 20.061-14.459z" fill="#f16465"/><path d="m462.27 232.513a152.859 152.859 0 0 0 -71.846-49.278l10.466-10.467a24.139 24.139 0 0 0 5.864-24.839 29.145 29.145 0 0 0 -48.254-11.392l-4.15 4.15-4.15-4.15a29.145 29.145 0 0 0 -48.259 11.392 24.14 24.14 0 0 0 5.863 24.839l6.2 6.2c-4.119.825-8.2 1.816-12.216 2.975a7.96 7.96 0 0 0 -.868.309 152.1 152.1 0 0 0 -95.327-73.552l24.722-31.786a8 8 0 0 0 .085-9.714l-24-32a8 8 0 0 0 -6.4-3.2h-64a8 8 0 0 0 -6.4 3.2l-24 32a8 8 0 0 0 .085 9.712l24.723 31.788a152.045 152.045 0 0 0 -114.408 147.3c0 83.813 68.187 152 152 152a151.532 151.532 0 0 0 43.083-6.229 151.524 151.524 0 0 0 132.917 78.229c83.813 0 152-68.187 152-152a152.361 152.361 0 0 0 -33.73-95.487zm-145.155-79.524a13.145 13.145 0 0 1 21.766-5.139l9.807 9.807a8 8 0 0 0 11.313 0l9.807-9.806a13.145 13.145 0 0 1 21.767 5.138 8.229 8.229 0 0 1 -2 8.466l-35.232 35.232-35.232-35.232a8.229 8.229 0 0 1 -1.996-8.466zm2.885 103.011a151.945 151.945 0 0 0 -2.712-28.529 104.009 104.009 0 1 1 -62.815 153.461 151.936 151.936 0 0 0 65.527-124.932zm7.972-63.059 15.076 15.076a120.242 120.242 0 0 0 -29.587 3.913 152.02 152.02 0 0 0 -5.461-15.109 135.775 135.775 0 0 1 19.972-3.88zm-55.972 63.059a104.135 104.135 0 0 1 -31.947 74.983c-.028-1-.053-1.989-.053-2.983a103.37 103.37 0 0 1 31.954-75c.028 1 .046 2 .046 3zm-62.026 95.186a137.259 137.259 0 0 1 -1.974-23.186 135.8 135.8 0 0 1 56.633-110.442 103.149 103.149 0 0 1 4.981 16.276 119.391 119.391 0 0 0 -45.614 94.166 121.573 121.573 0 0 0 .951 15.019 103.669 103.669 0 0 1 -14.977 8.167zm-17.974-23.186a153.165 153.165 0 0 0 2.689 28.539 104.017 104.017 0 1 1 62.781-153.5 151.77 151.77 0 0 0 -65.47 124.961zm-53.766-248 7.408 22.223-17.285-22.223zm69.409 0-17.285 22.223 7.408-22.223zm-26.743 0-12.9 38.7-12.9-38.7zm-20.9-16 8-10.667 8 10.667zm48 0h-12l-12-16h12zm-68-16h12l-12 16h-12zm-108 208a136.035 136.035 0 0 1 109.249-133.363l11.179 14.372a120 120 0 1 0 31.144 0l11.179-14.372a136.035 136.035 0 0 1 109.249 133.363c0 74.991-61.009 136-136 136s-136-61.009-136-136zm312 208a135.561 135.561 0 0 1 -117.6-67.674 151.512 151.512 0 0 0 14.471-6.967 120 120 0 1 0 123.114-179.686l13.515-13.513a136.053 136.053 0 0 1 102.5 131.84c0 74.991-61.009 136-136 136z"/><path d="m376 409.345a7.96 7.96 0 0 0 3.2-.671 88 88 0 0 0 8.8-4.451 8 8 0 1 0 -8-13.851 72.235 72.235 0 0 1 -7.2 3.64 8 8 0 0 0 3.2 15.333z"/><path d="m403.2 382.4a8 8 0 0 0 11.2-1.591 87.255 87.255 0 0 0 17.6-52.809 8 8 0 0 0 -16 0 71.369 71.369 0 0 1 -14.391 43.2 8 8 0 0 0 1.591 11.2z"/></g></svg>